<svg width="350" height="275" xmlns="http://www.w3.org/2000/svg" xmlns:xlink="http://www.w3.org/1999/xlink" overflow="hidden"><defs><clipPath id="clip0"><path d="M465 223 815 223 815 498 465 498Z" fill-rule="evenodd" clip-rule="evenodd"/></clipPath><clipPath id="clip1"><path d="M641.914 223.317 776.683 358.086 638.086 496.683 503.316 361.914Z" fill-rule="evenodd" clip-rule="evenodd"/></clipPath><clipPath id="clip2"><path d="M641.914 223.317 776.683 358.086 638.672 496.097 503.903 361.328Z" fill-rule="evenodd" clip-rule="evenodd"/></clipPath><clipPath id="clip3"><path d="M640.418 221.82 778.428 359.83 640.417 497.841 502.407 359.832Z" fill-rule="evenodd" clip-rule="evenodd"/></clipPath></defs><g clip-path="url(#clip0)" transform="translate(-465 -223)"><g clip-path="url(#clip1)"><g clip-path="url(#clip2)"><g clip-path="url(#clip3)"><path d="M24.781 32.2543C23.293 30.6615 23.3777 28.164 24.9709 26.676L36.7845 15.6395C37.9331 14.5664 39.6088 14.2774 41.0511 14.9032 42.4931 15.5294 43.4259 16.9512 43.4259 18.5234L43.4259 49.6002C43.4259 51.7802 41.659 53.5471 39.479 53.5471 37.2989 53.5471 35.532 51.7802 35.532 49.6002L35.532 27.6123 30.3598 32.4438C28.7665 33.9322 26.269 33.8476 24.781 32.2543ZM191.879 3.94693 191.879 78.5053C191.879 80.6853 190.112 82.4522 187.932 82.4522 185.752 82.4522 183.985 80.6853 183.985 78.5053L183.985 68.1236 131.649 68.1236 131.649 120.459 142.757 120.459C144.937 120.459 146.704 122.226 146.704 124.406 146.704 126.586 144.937 128.353 142.757 128.353L131.649 128.353 131.649 180.688 142.757 180.688C144.937 180.688 146.704 182.455 146.704 184.635 146.704 186.815 144.937 188.582 142.757 188.582L127.786 188.582C127.758 188.583 127.73 188.583 127.702 188.583 127.674 188.583 127.646 188.583 127.618 188.582L67.5574 188.582C67.5026 188.583 67.446 188.583 67.3899 188.582L7.25621 188.582C5.07663 188.582 3.30928 186.815 3.30928 184.636L3.3049 124.67C3.2992 124.583 3.29613 124.495 3.29613 124.405 3.29613 124.317 3.2992 124.229 3.3049 124.141L3.30051 64.363C3.29788 64.3008 3.29613 64.2389 3.29613 64.1758 3.29613 64.1131 3.29744 64.0512 3.30051 63.9889L3.29613 3.94737C3.29613 2.90012 3.71187 1.89628 4.45214 1.15645 5.19241 0.415743 6.19624 0 7.24306 0L187.932 0C190.112 0 191.879 1.76691 191.879 3.94693ZM63.5267 128.353 11.1992 128.353 11.2031 180.688 63.5272 180.688 63.5272 128.353ZM63.5267 68.1236 11.1948 68.1236 11.1983 120.459 63.5267 120.459 63.5267 68.1236ZM63.5267 7.89386 11.1904 7.89386 11.1944 60.2297 63.5272 60.2297 63.5272 7.89386ZM123.755 128.353 71.4206 128.353 71.4206 180.688 123.755 180.688 123.755 128.353ZM123.755 68.1236 71.4206 68.1236 71.4206 120.459 123.755 120.459 123.755 68.1236ZM123.755 7.89386 71.4206 7.89386 71.4206 60.2297 123.755 60.2297 123.755 7.89386ZM183.985 7.89386 131.649 7.89386 131.649 60.2297 183.985 60.2297 183.985 7.89386ZM190.934 101.605C191.544 102.319 191.879 103.228 191.879 104.167L191.879 191.228C191.879 193.408 190.112 195.175 187.932 195.175L163.052 195.175C160.872 195.175 159.105 193.408 159.105 191.228L159.105 104.167C159.105 103.228 159.44 102.319 160.05 101.605L172.49 87.0298C173.24 86.151 174.337 85.6453 175.492 85.6453 176.647 85.6453 177.744 86.151 178.494 87.0298L190.934 101.605ZM183.985 178.939 166.999 178.939 166.999 187.281 183.985 187.281 183.985 178.939ZM183.985 114.565 166.999 114.565 166.999 171.045 183.985 171.045 183.985 114.565ZM183.985 105.622 175.492 95.6723 166.999 105.622 166.999 106.672 183.985 106.672 183.985 105.622ZM104.724 104.679 83.2846 104.679C81.1046 104.679 79.3377 106.446 79.3377 108.626 79.3377 110.806 81.1046 112.573 83.2846 112.573L104.724 112.573C110.853 112.573 115.838 107.587 115.838 101.458 115.838 98.7294 114.85 96.2275 113.212 94.2909 114.85 92.3542 115.838 89.8523 115.838 87.1232 115.838 80.9945 110.852 76.0087 104.724 76.0087L83.2846 76.0087C81.1046 76.0087 79.3377 77.7756 79.3377 79.9556 79.3377 82.1356 81.1046 83.9025 83.2846 83.9025L104.724 83.9025C106.5 83.9025 107.944 85.3475 107.944 87.1237 107.944 88.8993 106.5 90.3439 104.724 90.3439L92.1073 90.3439C89.9273 90.3439 88.1604 92.1108 88.1604 94.2909 88.1604 96.4709 89.9273 98.2378 92.1073 98.2378L104.724 98.2378C106.5 98.2378 107.944 99.6828 107.944 101.459 107.944 103.235 106.5 104.679 104.724 104.679Z" transform="matrix(0.707107 0.707107 -0.707114 0.707114 640.418 221.82)"/></g></g></g><rect x="490" y="326" width="300" height="68" fill="#FFFFFF"/><text font-family="Agency FB,Agency FB_MSFontService,sans-serif" font-weight="700" font-stretch="condensed" font-size="64" transform="translate(504.083 385)">SUDOKU<tspan fill="#50D5E9" font-weight="400" x="178.167" y="0">ALLY</tspan></text><path d="M471 359.5 480.5 350 490 359.5 480.5 369Z" fill-rule="evenodd"/><path d="M790 359.5 799.5 350 809 359.5 799.5 369Z" fill-rule="evenodd"/></g></svg>